<svg id="deepmind-logo-icon" viewBox="0 0 40 40">
    <path d="M6.9 13.74c0 6.6 4.4 10.35 8.86 11.83a6.68 6.68 0 0 1-2.7-5.66c0-3.86 2.81-6.94 7.6-6.94 3.25 0 6.33 1.21 8.7 3.14 2.86 2.31 4.62 5.45 4.62 9.96 0 3.52-1.6 8.26-6.16 11.45A19.24 19.24 0 0 0 39.26 19.9 19.28 19.28 0 0 0 20 .64c-7.65 0-13.1 6.17-13.1 13.1"></path>
    <path d="M.74 19.9A19.28 19.28 0 0 0 20 39.18c7.65 0 13.1-6.16 13.1-13.1 0-6.6-4.4-10.35-8.86-11.83a6.68 6.68 0 0 1 2.7 5.67c0 3.85-2.81 6.93-7.6 6.93-3.25 0-6.33-1.21-8.7-3.14-2.86-2.3-4.62-5.45-4.62-9.96 0-3.52 1.6-8.25 6.16-11.45A19.24 19.24 0 0 0 .74 19.91"></path>
  </svg>
